<?xml version="1.0" encoding="utf-8"?>
<!-- Generator: Adobe Illustrator 21.0.0, SVG Export Plug-In . SVG Version: 6.00 Build 0)  -->
<svg version="1.1" xmlns="http://www.w3.org/2000/svg" xmlns:xlink="http://www.w3.org/1999/xlink" x="0px" y="0px"
	 viewBox="0 0 45.7 38.1" style="enable-background:new 0 0 45.7 38.1;" xml:space="preserve">
<style type="text/css">
	.st0{fill:#5DA05C;}
	.st1{fill:#4E934D;}
	.st2{fill:#FFDE56;}
	.st3{fill:#FFD523;}
	.st4{fill:#FFF0B3;}
	.st5{fill:#FFF4CA;}
</style>
<g id="Layer_1">
</g>
<g id="Layer_2">
	<g>
		<path class="st0" d="M42.8,5.7c-20.9-4.2-19.7-4-19.9-4c0,0,0,0,0,0c-0.2,0,1-0.2-19.3,4C2.9,5.9,2.5,6.4,2.5,7.1v29.7
			c0,0.9,0.8,1.5,1.6,1.3l14.3-2.7c1.8,3.7,7.1,3.7,8.9-0.1c0,0,0,0,0,0l15,2.8c0.8,0.2,1.6-0.5,1.6-1.3V7.1
			C43.8,6.4,43.4,5.9,42.8,5.7z"/>
		<path class="st1" d="M42.8,5.7c-21-4.2-19.7-4-19.9-4v36.4c1.9,0,3.6-1.1,4.4-2.8l15,2.8c0.8,0.2,1.6-0.5,1.6-1.3V7.1
			C43.8,6.4,43.4,5.9,42.8,5.7z"/>
		<path class="st2" d="M45.7,3.1v27.8c0,0.9-0.9,1.6-1.8,1.3c-0.1,0-4.7-1.7-10.3-1.7c-5.6,0-10.2,1.6-10.3,1.7
			c-0.3,0.1-0.6,0.1-0.9,0c-0.1,0-4.7-1.7-10.3-1.7c-5.6,0-10.2,1.6-10.3,1.7C0.9,32.5,0,31.8,0,30.9V3.1C0,2.5,0.4,2,0.9,1.8
			C1.1,1.7,6.1,0,12.1,0c5.1,0,9.4,1.2,10.7,1.7C24.2,1.2,28.5,0,33.6,0c6,0,11,1.7,11.2,1.8C45.3,2,45.7,2.5,45.7,3.1z"/>
		<path class="st3" d="M45.7,3.1v27.8c0,0.9-0.9,1.6-1.8,1.3c-0.1,0-4.7-1.7-10.3-1.7c-5.6,0-10.2,1.6-10.3,1.7
			c-0.2,0.1-0.3,0.1-0.5,0.1V1.7C24.2,1.2,28.5,0,33.6,0c6,0,11,1.7,11.2,1.8C45.3,2,45.7,2.5,45.7,3.1z"/>
		<g>
			<path class="st4" d="M39.3,8.8c-0.2,0.6-0.7,0.9-1.3,0.9c-0.2,0-0.3,0-0.5-0.1c-1.3-0.5-2.6-0.7-4-0.7c-1.2,0-2.4,0.2-3.6,0.6
				l-0.4,0.1c-0.7,0.2-1.5-0.2-1.7-0.9C27.6,8,28,7.3,28.7,7.1l0.4-0.1c1.4-0.5,2.9-0.7,4.4-0.7c1.7,0,3.3,0.3,4.9,0.8
				C39.2,7.3,39.6,8.1,39.3,8.8z"/>
			<path class="st4" d="M39.3,16.2c-0.2,0.6-0.7,0.9-1.3,0.9c-0.2,0-0.3,0-0.5-0.1c-1.3-0.5-2.6-0.7-4-0.7c-1.2,0-2.4,0.2-3.6,0.6
				l-0.4,0.1c-0.7,0.2-1.5-0.2-1.7-0.9c-0.2-0.7,0.2-1.5,0.9-1.7l0.4-0.1c1.4-0.5,2.9-0.7,4.4-0.7c1.7,0,3.3,0.3,4.9,0.8
				C39.2,14.7,39.6,15.5,39.3,16.2z"/>
			<path class="st4" d="M39.3,23.6c-0.2,0.6-0.7,0.9-1.3,0.9c-0.2,0-0.3,0-0.5-0.1c-1.3-0.5-2.6-0.7-4-0.7c-1.2,0-2.4,0.2-3.6,0.6
				l-0.4,0.1c-0.7,0.2-1.5-0.2-1.7-0.9c-0.2-0.7,0.2-1.5,0.9-1.7l0.4-0.1c1.4-0.5,2.9-0.7,4.4-0.7c1.7,0,3.3,0.3,4.9,0.8
				C39.2,22.2,39.6,22.9,39.3,23.6z"/>
		</g>
		<g>
			<path class="st5" d="M17.8,8.8c-0.2,0.6-0.7,0.9-1.3,0.9c-0.2,0-0.3,0-0.5-0.1c-1.3-0.5-2.6-0.7-4-0.7c-1.2,0-2.4,0.2-3.6,0.6
				L8.1,9.6C7.4,9.9,6.6,9.5,6.4,8.8C6.1,8,6.5,7.3,7.2,7.1l0.4-0.1c1.4-0.5,2.9-0.7,4.4-0.7c1.7,0,3.3,0.3,4.9,0.8
				C17.7,7.3,18.1,8.1,17.8,8.8z"/>
			<path class="st5" d="M17.8,16.2c-0.2,0.6-0.7,0.9-1.3,0.9c-0.2,0-0.3,0-0.5-0.1c-1.3-0.5-2.6-0.7-4-0.7c-1.2,0-2.4,0.2-3.6,0.6
				l-0.4,0.1c-0.7,0.2-1.5-0.2-1.7-0.9c-0.2-0.7,0.2-1.5,0.9-1.7l0.4-0.1c1.4-0.5,2.9-0.7,4.4-0.7c1.7,0,3.3,0.3,4.9,0.8
				C17.7,14.7,18.1,15.5,17.8,16.2z"/>
			<path class="st5" d="M17.8,23.6c-0.2,0.6-0.7,0.9-1.3,0.9c-0.2,0-0.3,0-0.5-0.1c-1.3-0.5-2.6-0.7-4-0.7c-1.2,0-2.4,0.2-3.6,0.6
				l-0.4,0.1c-0.7,0.2-1.5-0.2-1.7-0.9c-0.2-0.7,0.2-1.5,0.9-1.7l0.4-0.1c1.4-0.5,2.9-0.7,4.4-0.7c1.7,0,3.3,0.3,4.9,0.8
				C17.7,22.2,18.1,22.9,17.8,23.6z"/>
		</g>
	</g>
</g>
</svg>
